<svg width="131" height="131" viewBox="0 0 131 131" fill="none" xmlns="http://www.w3.org/2000/svg">
<rect width="131" height="131" rx="65.5" fill="#141414"/>
<path d="M75.4466 48.2749C74.2291 48.2749 73.0575 48.7573 72.196 49.6188L58.9068 62.9081C57.6146 64.2003 55.863 64.9239 54.031 64.9239H44.2506C41.7122 64.9239 39.6562 62.8679 39.6562 60.3295V36.7832H51.1422V54.0122L67.0274 38.1271C67.8888 37.2656 69.0604 36.7832 70.2779 36.7832H91.3489V48.2692H75.4466V48.2749ZM39.662 94.2189H51.148V76.9899H79.8629V94.2189H91.3489V84.6338C91.3489 83.4163 90.8665 82.2447 90.0051 81.3833L75.4696 66.8478C74.6081 65.9863 73.4365 65.5039 72.219 65.5039H59.7452C57.919 65.5039 56.1674 66.2275 54.8694 67.5197L41.0059 81.3833C40.1444 82.2447 39.662 83.4163 39.662 84.6338V94.2189Z" fill="#FAF5EA"/>
</svg>
