<svg width="308" height="112" viewBox="0 0 308 112" fill="none" xmlns="http://www.w3.org/2000/svg">
<rect width="112.669" height="111.57" rx="55.6908" fill="#141414"/>
<path d="M64.3032 41.981C63.3276 41.981 62.3887 42.3676 61.6984 43.0579L51.049 53.7073C50.0135 54.7428 48.6099 55.3226 47.1418 55.3226H39.3043C37.2702 55.3226 35.6226 53.6751 35.6226 51.6409V32.7721H44.8269V46.5785L57.5565 33.849C58.2468 33.1587 59.1856 32.7721 60.1613 32.7721H77.0466V41.9764H64.3032V41.981ZM35.6272 78.7983H44.8315V64.9918H67.8423V78.7983H77.0466V71.1173C77.0466 70.1416 76.66 69.2028 75.9697 68.5124L64.3216 56.8644C63.6313 56.174 62.6925 55.7875 61.7168 55.7875H51.7209C50.2574 55.7875 48.8538 56.3673 47.8137 57.4028L36.7041 68.5124C36.0138 69.2028 35.6272 70.1416 35.6272 71.1173V78.7983Z" fill="#FAF5EA"/>
<path d="M155.006 46.0157C154.315 46.0157 153.651 46.2893 153.162 46.7778L145.625 54.3147C144.893 55.0475 143.899 55.4579 142.86 55.4579H137.313C135.874 55.4579 134.708 54.2919 134.708 52.8523V39.4983H141.222V49.2695L150.231 40.2604C150.719 39.7719 151.384 39.4983 152.074 39.4983H164.025V46.0124H155.006V46.0157ZM134.711 72.0723H141.225V62.301H157.51V72.0723H164.025V66.6362C164.025 65.9457 163.751 65.2813 163.262 64.7927L155.019 56.549C154.53 56.0605 153.866 55.7869 153.175 55.7869H146.101C145.065 55.7869 144.072 56.1973 143.336 56.9301L135.473 64.7927C134.985 65.2813 134.711 65.9457 134.711 66.6362V72.0723Z" fill="#FAF5EA"/>
<path d="M178.795 40.262L185.411 46.8772C185.899 47.3657 186.173 48.0302 186.173 48.7207V72.0706H179.659V48.6197C179.659 47.1801 178.493 46.014 177.053 46.014H168.259V39.4999H176.952C177.642 39.4999 178.307 39.7735 178.795 40.262ZM197.576 39.4999H187.479C186.759 39.4999 186.176 40.0829 186.176 40.8027V46.014H197.576V39.4999Z" fill="#FAF5EA"/>
<path d="M225.375 56.5474L233.618 64.7911C234.107 65.2796 234.381 65.9441 234.381 66.6346V72.0706H227.866V64.9051C227.866 63.4654 226.7 62.2994 225.261 62.2994H210.93C209.49 62.2994 208.324 63.4654 208.324 64.9051V72.0706H201.81V66.6346C201.81 65.9441 202.084 65.2796 202.572 64.7911L210.816 56.5474C211.304 56.0589 211.969 55.7853 212.659 55.7853H223.528C224.219 55.7853 224.883 56.0589 225.372 56.5474H225.375ZM212.666 39.4999C211.975 39.4999 211.311 39.7735 210.822 40.262L202.579 48.5057C202.09 48.9943 201.816 49.6587 201.816 50.3492V57.4138H208.331V48.6197C208.331 47.1801 209.497 46.014 210.936 46.014H225.267C226.707 46.014 227.873 47.1801 227.873 48.6197V57.4138H234.387V50.3492C234.387 49.6587 234.114 48.9943 233.625 48.5057L225.381 40.262C224.893 39.7735 224.228 39.4999 223.538 39.4999H212.666Z" fill="#FAF5EA"/>
<path d="M262.183 40.262L270.427 48.5057C270.915 48.9943 271.189 49.6587 271.189 50.3492V72.0706H264.675V48.6197C264.675 47.1801 263.509 46.014 262.069 46.014H246.761L252.513 40.262C253.001 39.7735 253.666 39.4999 254.356 39.4999H260.34C261.03 39.4999 261.694 39.7735 262.183 40.262ZM238.621 39.4999V72.0706H245.135V39.4999H238.621Z" fill="#FAF5EA"/>
<path d="M298.988 56.5474L307.232 64.7911C307.72 65.2796 307.994 65.9441 307.994 66.6346V72.0706H301.48V64.9051C301.48 63.4654 300.314 62.2994 298.874 62.2994H284.543C283.103 62.2994 281.937 63.4654 281.937 64.9051V72.0706H275.423V66.6346C275.423 65.9441 275.697 65.2796 276.185 64.7911L284.429 56.5474C284.917 56.0589 285.582 55.7853 286.272 55.7853H297.141C297.832 55.7853 298.496 56.0589 298.985 56.5474H298.988ZM286.279 39.4999C285.588 39.4999 284.924 39.7735 284.435 40.262L276.192 48.5057C275.703 48.9943 275.43 49.6587 275.43 50.3492V57.4138H281.944V48.6197C281.944 47.1801 283.11 46.014 284.549 46.014H298.88C300.32 46.014 301.486 47.1801 301.486 48.6197V57.4138H308V50.3492C308 49.6587 307.727 48.9943 307.238 48.5057L298.994 40.262C298.506 39.7735 297.841 39.4999 297.151 39.4999H286.279Z" fill="#FAF5EA"/>
</svg>
