<svg width="428" height="81" viewBox="0 0 428 81" fill="none" xmlns="http://www.w3.org/2000/svg">
<path d="M13.2142 34.1332C12.7647 34.1332 12.3321 34.3113 12.0141 34.6294L7.10752 39.5359C6.63043 40.013 5.98372 40.2802 5.30731 40.2802H1.69631C0.759097 40.2802 0 39.5211 0 38.5839V29.8903H4.24076V36.2515L10.1057 30.3865C10.4238 30.0684 10.8564 29.8903 11.3059 29.8903H19.0856V34.1311H13.2142V34.1332ZM0.00212003 51.0963H4.24288V44.7351H14.8448V51.0963H19.0856V47.5574C19.0856 47.1078 18.9074 46.6753 18.5894 46.3572L13.2227 40.9905C12.9046 40.6725 12.4721 40.4944 12.0226 40.4944H7.4171C6.74281 40.4944 6.0961 40.7615 5.61689 41.2386L0.498289 46.3572C0.180232 46.6753 0.00212003 47.1078 0.00212003 47.5574V51.0963Z" fill="#FAF5EA"/>
<path d="M28.7015 30.3876L33.008 34.6941C33.326 35.0121 33.5041 35.4447 33.5041 35.8942V51.0952H29.2634V35.8285C29.2634 34.8913 28.5043 34.1322 27.5671 34.1322H21.8421V29.8914H27.5013C27.9509 29.8914 28.3834 30.0695 28.7015 30.3876ZM40.9276 29.8914H34.3544C33.8858 29.8914 33.5063 30.2709 33.5063 30.7395V34.1322H40.9276V29.8914Z" fill="#FAF5EA"/>
<path d="M59.0251 40.9895L64.3918 46.3562C64.7098 46.6742 64.8879 47.1068 64.8879 47.5563V51.0952H60.6472V46.4304C60.6472 45.4932 59.8881 44.7341 58.9509 44.7341H49.6212C48.684 44.7341 47.9249 45.4932 47.9249 46.4304V51.0952H43.6841V47.5563C43.6841 47.1068 43.8622 46.6742 44.1803 46.3562L49.547 40.9895C49.865 40.6714 50.2976 40.4933 50.7471 40.4933H57.8228C58.2723 40.4933 58.7049 40.6714 59.0229 40.9895H59.0251ZM50.7513 29.8914C50.3018 29.8914 49.8693 30.0695 49.5512 30.3876L44.1845 35.7542C43.8665 36.0723 43.6883 36.5049 43.6883 36.9544V41.5535H47.9291V35.8285C47.9291 34.8913 48.6882 34.1322 49.6254 34.1322H58.9551C59.8923 34.1322 60.6514 34.8913 60.6514 35.8285V41.5535H64.8922V36.9544C64.8922 36.5049 64.7141 36.0723 64.396 35.7542L59.0293 30.3876C58.7112 30.0695 58.2787 29.8914 57.8292 29.8914H50.7513Z" fill="#FAF5EA"/>
<path d="M82.9875 30.3876L88.3542 35.7542C88.6722 36.0723 88.8504 36.5049 88.8504 36.9544V51.0952H84.6096V35.8285C84.6096 34.8913 83.8505 34.1322 82.9133 34.1322H72.9475L76.6921 30.3876C77.0101 30.0695 77.4427 29.8914 77.8922 29.8914H81.7874C82.2369 29.8914 82.6694 30.0695 82.9875 30.3876ZM67.6487 29.8914V51.0952H71.8894V29.8914H67.6487Z" fill="#FAF5EA"/>
<path d="M106.948 40.9895L112.315 46.3562C112.633 46.6742 112.811 47.1068 112.811 47.5563V51.0952H108.57V46.4304C108.57 45.4932 107.811 44.7341 106.874 44.7341H97.5439C96.6067 44.7341 95.8476 45.4932 95.8476 46.4304V51.0952H91.6069V47.5563C91.6069 47.1068 91.785 46.6742 92.103 46.3562L97.4697 40.9895C97.7878 40.6714 98.2203 40.4933 98.6698 40.4933H105.746C106.195 40.4933 106.628 40.6714 106.946 40.9895H106.948ZM98.6741 29.8914C98.2246 29.8914 97.792 30.0695 97.4739 30.3876L92.1073 35.7542C91.7892 36.0723 91.6111 36.5049 91.6111 36.9544V41.5535H95.8519V35.8285C95.8519 34.8913 96.611 34.1322 97.5482 34.1322H106.878C107.815 34.1322 108.574 34.8913 108.574 35.8285V41.5535H112.815V36.9544C112.815 36.5049 112.637 36.0723 112.319 35.7542L106.952 30.3876C106.634 30.0695 106.201 29.8914 105.752 29.8914H98.6741Z" fill="#FAF5EA"/>
<rect width="80.919" height="80.919" transform="translate(134.832) scale(1.00084)" fill="#FAF5EA"/>
<path d="M183.386 26.5278C182.399 26.5278 181.45 26.9189 180.751 27.6173L169.978 38.3907C168.93 39.4382 167.51 40.0248 166.025 40.0248H158.096C156.039 40.0248 154.372 38.3581 154.372 36.3002V17.2117H163.683V31.1789L176.561 18.3012C177.259 17.6028 178.209 17.2117 179.196 17.2117H196.278V26.5232H183.386V26.5278ZM154.376 63.7737H163.688V49.8065H186.967V63.7737H196.278V56.0033C196.278 55.0163 195.887 54.0665 195.189 53.3681L183.405 41.5845C182.707 40.8861 181.757 40.495 180.77 40.495H170.658C169.177 40.495 167.757 41.0817 166.705 42.1292L155.466 53.3681C154.768 54.0665 154.376 55.0163 154.376 56.0033V63.7737Z" fill="#141414"/>
<path d="M238.962 44.4963V35.8376H248.456V37.4119H240.9V39.3253H247.754V40.8996H240.9V42.922H248.456V44.4963H238.962ZM249.783 44.4963V35.8376H251.406L255.414 38.6471H255.475L259.483 35.8376H261.106V44.4963H259.169V38.2596L256.42 40.1004V44.4963H254.482V40.1004L251.721 38.2596V44.4963H249.783ZM262.804 44.4963V35.8618L270.094 35.8376C272.02 35.8376 272.928 36.6368 272.928 38.2354C272.928 39.0589 272.674 39.6038 272.129 39.9914C272.843 40.3789 273.17 40.9844 273.17 41.9895C273.17 43.6244 272.262 44.4842 270.336 44.4842L262.804 44.4963ZM269.864 37.3877H264.742V39.3253H269.864C270.591 39.3253 270.966 38.9741 270.966 38.3323C270.966 37.6904 270.591 37.3877 269.864 37.3877ZM270.106 40.8754H264.742V42.9341H270.106C270.845 42.9341 271.208 42.5829 271.208 41.8927C271.208 41.2024 270.845 40.8754 270.106 40.8754ZM274.5 44.4963V35.8376H281.754C283.546 35.8376 284.588 36.7337 284.588 38.5745C284.588 40.1488 283.825 41.0328 282.493 41.2508L284.491 44.4963H282.287L280.434 41.3114H276.438V44.4963H274.5ZM281.524 37.4119H276.438V39.7249L281.524 39.737C282.226 39.737 282.626 39.4222 282.626 38.5745C282.626 37.7268 282.226 37.4119 281.524 37.4119ZM285.316 44.4963L289.216 35.8376H292.207L296.106 44.4963H293.999L293.176 42.6677H288.247L287.423 44.4963H285.316ZM288.949 41.0934H292.473L290.79 37.3513H290.632L288.949 41.0934ZM301.297 44.5569C298.1 44.5569 296.356 43.0673 296.356 40.1609C296.356 37.2666 298.1 35.7649 301.297 35.777L305.656 35.8012V37.3513H301.43C299.323 37.3513 298.33 38.1991 298.33 40.1609C298.33 42.1349 299.323 42.9826 301.43 42.9826H305.777V44.5569H301.297ZM306.987 44.4963V35.8376H316.482V37.4119H308.925V39.3253H315.779V40.8996H308.925V42.922H316.482V44.4963H306.987ZM321.739 40.2215V35.8376H332.396V40.2215H330.434V37.4119H327.794V44.4963H325.857V37.4119H323.701V40.2215H321.739ZM333.786 44.4963V35.8376H335.723V39.3859H341.827V35.8376H343.764V44.4963H341.827V40.9602H335.723V44.4963H333.786ZM345.458 44.4963V35.8376H354.953V37.4119H347.396V39.3253H354.25V40.8996H347.396V42.922H354.953V44.4963H345.458ZM360.513 44.4963V35.8376H369.765V37.4119H362.451V39.8097H368.821V41.384H362.451V44.4963H360.513ZM374.598 44.5569C371.958 44.5569 371.098 43.5396 371.098 41.3961V35.8376H373.035V41.3961C373.035 42.6314 373.556 42.9826 374.925 42.9826H377.262C378.63 42.9826 379.151 42.6314 379.151 41.3961V35.8376H381.089V41.3961C381.089 43.5396 380.229 44.5569 377.589 44.5569H374.598ZM382.479 40.2215V35.8376H393.136V40.2215H391.174V37.4119H388.534V44.4963H386.597V37.4119H384.441V40.2215H382.479ZM398.026 44.5569C395.386 44.5569 394.526 43.5396 394.526 41.3961V35.8376H396.463V41.3961C396.463 42.6314 396.984 42.9826 398.352 42.9826H400.69C402.058 42.9826 402.579 42.6314 402.579 41.3961V35.8376H404.517V41.3961C404.517 43.5396 403.657 44.5569 401.017 44.5569H398.026ZM406.21 44.4963V35.8376H413.464C415.256 35.8376 416.298 36.7337 416.298 38.5745C416.298 40.1488 415.535 41.0328 414.203 41.2508L416.201 44.4963H413.997L412.144 41.3114H408.148V44.4963H406.21ZM413.234 37.4119H408.148V39.7249L413.234 39.737C413.936 39.737 414.336 39.4222 414.336 38.5745C414.336 37.7268 413.936 37.4119 413.234 37.4119ZM417.753 44.4963V35.8376H427.247V37.4119H419.69V39.3253H426.545V40.8996H419.69V42.922H427.247V44.4963H417.753Z" fill="#FAF5EA"/>
</svg>
