<svg width="301" height="106" viewBox="0 0 301 106" fill="none" xmlns="http://www.w3.org/2000/svg">
<rect width="105.2" height="105.2" transform="scale(1.00267)" fill="#141414"/>
<path d="M63.2402 34.5527C61.9546 34.5527 60.7176 35.0621 59.8081 35.9716L45.7764 50.0033C44.4121 51.3676 42.5626 52.1317 40.6282 52.1317H30.3016C27.6214 52.1317 25.4505 49.9608 25.4505 47.2806V22.419H37.5781V40.6104L54.3506 23.838C55.2602 22.9284 56.4972 22.419 57.7827 22.419H80.0309V34.5466H63.2402V34.5527ZM25.4566 83.0632H37.5842V64.8717H67.9032V83.0632H80.0309V72.9427C80.0309 71.6571 79.5215 70.4201 78.6119 69.5106L63.2644 54.1631C62.3549 53.2535 61.1178 52.7441 59.8323 52.7441H46.6617C44.7334 52.7441 42.884 53.5082 41.5136 54.8725L26.8755 69.5106C25.9659 70.4201 25.4566 71.6571 25.4566 72.9427V83.0632Z" fill="#FAF5EA"/>
<path d="M147.856 34.9392C147.165 34.9392 146.5 35.2131 146.011 35.7021L138.467 43.2463C137.733 43.9799 136.739 44.3907 135.699 44.3907H130.147C128.706 44.3907 127.539 43.2235 127.539 41.7825V28.4154H134.059V38.1962L143.077 29.1783C143.566 28.6893 144.231 28.4154 144.922 28.4154H156.884V34.9359H147.856V34.9392ZM127.542 61.0212H134.062V51.2405H150.364V61.0212H156.884V55.5799C156.884 54.8887 156.61 54.2236 156.121 53.7346L147.869 45.4829C147.38 44.9938 146.715 44.72 146.024 44.72H138.943C137.906 44.72 136.912 45.1308 136.175 45.8643L128.305 53.7346C127.816 54.2236 127.542 54.8887 127.542 55.5799V61.0212Z" fill="#141414"/>
<path d="M171.669 29.18L178.291 35.8015C178.78 36.2906 179.054 36.9557 179.054 37.6468V61.0196H172.533V37.5458C172.533 36.1047 171.366 34.9376 169.925 34.9376H161.122V28.4171H169.824C170.515 28.4171 171.18 28.6909 171.669 29.18ZM190.468 28.4171H180.361C179.641 28.4171 179.057 29.0007 179.057 29.7212V34.9376H190.468V28.4171Z" fill="#141414"/>
<path d="M218.294 45.4812L226.546 53.7329C227.035 54.222 227.309 54.8871 227.309 55.5782V61.0196H220.788V53.847C220.788 52.406 219.621 51.2388 218.18 51.2388H203.835C202.394 51.2388 201.227 52.406 201.227 53.847V61.0196H194.706V55.5782C194.706 54.8871 194.98 54.222 195.469 53.7329L203.721 45.4812C204.21 44.9922 204.875 44.7183 205.566 44.7183H216.446C217.137 44.7183 217.802 44.9922 218.291 45.4812H218.294ZM205.573 28.4171C204.882 28.4171 204.216 28.6909 203.727 29.18L195.476 37.4317C194.987 37.9207 194.713 38.5858 194.713 39.277V46.3485H201.233V37.5458C201.233 36.1047 202.4 34.9376 203.841 34.9376H218.187C219.628 34.9376 220.795 36.1047 220.795 37.5458V46.3485H227.315V39.277C227.315 38.5858 227.041 37.9207 226.552 37.4317L218.301 29.18C217.812 28.6909 217.147 28.4171 216.455 28.4171H205.573Z" fill="#141414"/>
<path d="M255.138 29.18L263.39 37.4317C263.879 37.9207 264.153 38.5858 264.153 39.277V61.0196H257.632V37.5458C257.632 36.1047 256.465 34.9376 255.024 34.9376H239.701L245.459 29.18C245.948 28.6909 246.613 28.4171 247.304 28.4171H253.293C253.984 28.4171 254.649 28.6909 255.138 29.18ZM231.554 28.4171V61.0196H238.074V28.4171H231.554Z" fill="#141414"/>
<path d="M291.979 45.4812L300.231 53.7329C300.72 54.222 300.994 54.8871 300.994 55.5782V61.0196H294.473V53.847C294.473 52.406 293.306 51.2388 291.865 51.2388H277.52C276.079 51.2388 274.912 52.406 274.912 53.847V61.0196H268.391V55.5782C268.391 54.8871 268.665 54.222 269.154 53.7329L277.406 45.4812C277.895 44.9922 278.56 44.7183 279.251 44.7183H290.131C290.822 44.7183 291.487 44.9922 291.976 45.4812H291.979ZM279.258 28.4171C278.566 28.4171 277.901 28.6909 277.412 29.18L269.161 37.4317C268.672 37.9207 268.398 38.5858 268.398 39.277V46.3485H274.918V37.5458C274.918 36.1047 276.085 34.9376 277.526 34.9376H291.872C293.313 34.9376 294.48 36.1047 294.48 37.5458V46.3485H301V39.277C301 38.5858 300.726 37.9207 300.237 37.4317L291.986 29.18C291.497 28.6909 290.832 28.4171 290.14 28.4171H279.258Z" fill="#141414"/>
<path d="M128.697 74.0564V66.1704H137.344V67.6042H130.462V69.3469H136.704V70.7807H130.462V72.6226H137.344V74.0564H128.697ZM138.552 74.0564V66.1704H140.03L143.681 68.7292H143.736L147.387 66.1704H148.865V74.0564H147.1V68.3763L144.596 70.0527V74.0564H142.832V70.0527L140.317 68.3763V74.0564H138.552ZM150.411 74.0564V66.1925L157.051 66.1704C157.926 66.1704 158.573 66.3542 158.992 66.7219C159.418 67.0822 159.631 67.6263 159.631 68.3542C159.631 69.0822 159.389 69.6152 158.903 69.9535C159.227 70.1299 159.466 70.3652 159.62 70.6594C159.775 70.9461 159.852 71.3174 159.852 71.7733C159.852 72.516 159.639 73.0821 159.212 73.4718C158.793 73.8542 158.146 74.0454 157.271 74.0454L150.411 74.0564ZM156.841 67.5822H152.176V69.3469H156.841C157.51 69.3469 157.845 69.0454 157.845 68.4425C157.845 67.8689 157.51 67.5822 156.841 67.5822ZM157.062 70.7586H152.176V72.6336H157.062C157.731 72.6336 158.065 72.3174 158.065 71.6851C158.065 71.0674 157.731 70.7586 157.062 70.7586ZM161.063 74.0564V66.1704H167.67C168.486 66.1704 169.118 66.3763 169.567 66.7881C170.023 67.1998 170.251 67.8248 170.251 68.663C170.251 69.3763 170.085 69.9351 169.754 70.3395C169.423 70.7439 168.953 70.9976 168.343 71.1005L170.162 74.0564H168.155L166.468 71.1557H162.828V74.0564H161.063ZM167.46 67.6042H162.828V69.7108L167.46 69.7219C167.784 69.7219 168.03 69.641 168.199 69.4792C168.376 69.3175 168.464 69.0454 168.464 68.663C168.464 68.2733 168.376 68.0013 168.199 67.8469C168.03 67.6851 167.784 67.6042 167.46 67.6042ZM170.914 74.0564L174.465 66.1704H177.19L180.741 74.0564H178.822L178.072 72.391H173.583L172.833 74.0564H170.914ZM174.223 70.9571H177.432L175.899 67.5491H175.756L174.223 70.9571ZM185.468 74.1115C184.012 74.1115 182.898 73.777 182.126 73.1079C181.354 72.4314 180.968 71.4314 180.968 70.1079C180.968 68.7917 181.354 67.7954 182.126 67.1189C182.898 66.4425 184.012 66.1079 185.468 66.1153L189.439 66.1373V67.5491H185.589C184.634 67.5491 183.924 67.7513 183.461 68.1557C182.998 68.5601 182.766 69.2108 182.766 70.1079C182.766 71.0049 182.998 71.6594 183.461 72.0711C183.924 72.4755 184.634 72.6777 185.589 72.6777H189.549V74.1115H185.468ZM190.651 74.0564V66.1704H199.298V67.6042H192.415V69.3469H198.658V70.7807H192.415V72.6226H199.298V74.0564H190.651ZM204.086 70.163V66.1704H213.792V70.163H212.005V67.6042H209.601V74.0564H207.836V67.6042H205.873V70.163H204.086ZM215.057 74.0564V66.1704H216.822V69.402H222.381V66.1704H224.146V74.0564H222.381V70.8358H216.822V74.0564H215.057ZM225.688 74.0564V66.1704H234.335V67.6042H227.453V69.3469H233.696V70.7807H227.453V72.6226H234.335V74.0564H225.688ZM239.4 74.0564V66.1704H247.826V67.6042H241.164V69.788H246.966V71.2219H241.164V74.0564H239.4ZM252.227 74.1115C251.425 74.1115 250.793 74.0086 250.33 73.8027C249.867 73.5895 249.536 73.2696 249.337 72.8432C249.139 72.4167 249.039 71.8799 249.039 71.2329V66.1704H250.804V71.2329C250.804 71.7917 250.933 72.1741 251.19 72.3799C251.455 72.5785 251.9 72.6777 252.525 72.6777H254.653C255.278 72.6777 255.72 72.5785 255.977 72.3799C256.242 72.1741 256.374 71.7917 256.374 71.2329V66.1704H258.139V71.2329C258.139 71.8799 258.039 72.4167 257.841 72.8432C257.642 73.2696 257.311 73.5895 256.848 73.8027C256.385 74.0086 255.753 74.1115 254.951 74.1115H252.227ZM259.405 70.163V66.1704H269.111V70.163H267.324V67.6042H264.92V74.0564H263.155V67.6042H261.192V70.163H259.405ZM273.564 74.1115C272.763 74.1115 272.13 74.0086 271.667 73.8027C271.204 73.5895 270.873 73.2696 270.674 72.8432C270.476 72.4167 270.377 71.8799 270.377 71.2329V66.1704H272.141V71.2329C272.141 71.7917 272.27 72.1741 272.527 72.3799C272.792 72.5785 273.237 72.6777 273.862 72.6777H275.99C276.615 72.6777 277.057 72.5785 277.314 72.3799C277.579 72.1741 277.711 71.7917 277.711 71.2329V66.1704H279.476V71.2329C279.476 71.8799 279.376 72.4167 279.178 72.8432C278.979 73.2696 278.649 73.5895 278.185 73.8027C277.722 74.0086 277.09 74.1115 276.288 74.1115H273.564ZM281.018 74.0564V66.1704H287.625C288.441 66.1704 289.073 66.3763 289.522 66.7881C289.978 67.1998 290.206 67.8248 290.206 68.663C290.206 69.3763 290.04 69.9351 289.709 70.3395C289.378 70.7439 288.908 70.9976 288.297 71.1005L290.117 74.0564H288.11L286.422 71.1557H282.783V74.0564H281.018ZM287.415 67.6042H282.783V69.7108L287.415 69.7219C287.739 69.7219 287.985 69.641 288.154 69.4792C288.331 69.3175 288.419 69.0454 288.419 68.663C288.419 68.2733 288.331 68.0013 288.154 67.8469C287.985 67.6851 287.739 67.6042 287.415 67.6042ZM291.53 74.0564V66.1704H300.177V67.6042H293.295V69.3469H299.538V70.7807H293.295V72.6226H300.177V74.0564H291.53Z" fill="#141414"/>
</svg>
