<svg width="173" height="56" viewBox="0 0 173 56" fill="none" xmlns="http://www.w3.org/2000/svg">
<path d="M20.2638 6.50641C19.5745 6.50641 18.9112 6.77954 18.4234 7.26728L10.8993 14.7914C10.1677 15.523 9.17595 15.9327 8.1387 15.9327H2.60126C1.16407 15.9327 0 14.7687 0 13.3315V0H6.50316V9.75474L15.497 0.76087C15.9848 0.273133 16.6481 0 17.3374 0H29.2675V6.50316H20.2638V6.50641ZM0.00325103 32.519H6.50641V22.7643H22.7643V32.519H29.2675V27.0922C29.2675 26.4028 28.9943 25.7395 28.5066 25.2518L20.2768 17.022C19.7891 16.5343 19.1258 16.2611 18.4365 16.2611H11.374C10.34 16.2611 9.34829 16.6708 8.61343 17.4025L0.764121 25.2518C0.276384 25.7395 0.00325103 26.4028 0.00325103 27.0922V32.519Z" fill="#141414"/>
<path d="M44.0134 0.762495L50.6173 7.36645C51.1051 7.85419 51.3782 8.51751 51.3782 9.20685V32.5174H44.875V9.10605C44.875 7.66885 43.711 6.50478 42.2738 6.50478H33.4945V0.0016249H42.173C42.8623 0.0016249 43.5256 0.274758 44.0134 0.762495ZM62.762 0.0016249H52.6821C51.9635 0.0016249 51.3815 0.583658 51.3815 1.30226V6.50478H62.762V0.0016249Z" fill="#141414"/>
<path d="M90.5142 17.0204L98.7439 25.2501C99.2317 25.7379 99.5048 26.4012 99.5048 27.0905V32.5174H93.0017V25.3639C93.0017 23.9267 91.8376 22.7627 90.4004 22.7627H76.0935C74.6562 22.7627 73.4922 23.9267 73.4922 25.3639V32.5174H66.989V27.0905C66.989 26.4012 67.2622 25.7379 67.7499 25.2501L75.9797 17.0204C76.4674 16.5327 77.1307 16.2595 77.82 16.2595H88.6706C89.3599 16.2595 90.0232 16.5327 90.5109 17.0204H90.5142ZM77.8265 0.0016249C77.1372 0.0016249 76.4739 0.274758 75.9862 0.762495L67.7564 8.99224C67.2687 9.47998 66.9955 10.1433 66.9955 10.8326V17.8853H73.4987V9.10605C73.4987 7.66885 74.6628 6.50478 76.1 6.50478H90.4069C91.8441 6.50478 93.0082 7.66885 93.0082 9.10605V17.8853H99.5113V10.8326C99.5113 10.1433 99.2382 9.47998 98.7505 8.99224L90.5207 0.762495C90.033 0.274758 89.3697 0.0016249 88.6803 0.0016249H77.8265Z" fill="#141414"/>
<path d="M127.26 0.762495L135.49 8.99224C135.978 9.47998 136.251 10.1433 136.251 10.8326V32.5174H129.748V9.10605C129.748 7.66885 128.584 6.50478 127.146 6.50478H111.864L117.606 0.762495C118.094 0.274758 118.757 0.0016249 119.447 0.0016249H125.42C126.109 0.0016249 126.773 0.274758 127.26 0.762495ZM103.738 0.0016249V32.5174H110.242V0.0016249H103.738Z" fill="#141414"/>
<path d="M164.003 17.0204L172.233 25.2501C172.721 25.7379 172.994 26.4012 172.994 27.0905V32.5174H166.491V25.3639C166.491 23.9267 165.327 22.7627 163.889 22.7627H149.582C148.145 22.7627 146.981 23.9267 146.981 25.3639V32.5174H140.478V27.0905C140.478 26.4012 140.751 25.7379 141.239 25.2501L149.469 17.0204C149.956 16.5327 150.62 16.2595 151.309 16.2595H162.16C162.849 16.2595 163.512 16.5327 164 17.0204H164.003ZM151.315 0.0016249C150.626 0.0016249 149.963 0.274758 149.475 0.762495L141.245 8.99224C140.758 9.47998 140.484 10.1433 140.484 10.8326V17.8853H146.988V9.10605C146.988 7.66885 148.152 6.50478 149.589 6.50478H163.896C165.333 6.50478 166.497 7.66885 166.497 9.10605V17.8853H173V10.8326C173 10.1433 172.727 9.47998 172.239 8.99224L164.01 0.762495C163.522 0.274758 162.859 0.0016249 162.169 0.0016249H151.315Z" fill="#141414"/>
<path d="M1.15525 52.5195V44.6545H9.77925V46.0845H2.91525V47.8225H9.14125V49.2525H2.91525V51.0895H9.77925V52.5195H1.15525ZM10.9844 52.5195V44.6545H12.4584L16.0994 47.2065H16.1544L19.7954 44.6545H21.2694V52.5195H19.5094V46.8545L17.0124 48.5265V52.5195H15.2524V48.5265L12.7444 46.8545V52.5195H10.9844ZM22.8115 52.5195V44.6765L29.4335 44.6545C31.1825 44.6545 32.0075 45.3805 32.0075 46.8325C32.0075 47.5805 31.7765 48.0755 31.2815 48.4275C31.9305 48.7795 32.2275 49.3295 32.2275 50.2425C32.2275 51.7275 31.4025 52.5085 29.6535 52.5085L22.8115 52.5195ZM29.2245 46.0625H24.5715V47.8225H29.2245C29.8845 47.8225 30.2255 47.5035 30.2255 46.9205C30.2255 46.3375 29.8845 46.0625 29.2245 46.0625ZM29.4445 49.2305H24.5715V51.1005H29.4445C30.1155 51.1005 30.4455 50.7815 30.4455 50.1545C30.4455 49.5275 30.1155 49.2305 29.4445 49.2305ZM33.4355 52.5195V44.6545H40.0245C41.6525 44.6545 42.5985 45.4685 42.5985 47.1405C42.5985 48.5705 41.9055 49.3735 40.6955 49.5715L42.5105 52.5195H40.5085L38.8255 49.6265H35.1955V52.5195H33.4355ZM39.8155 46.0845H35.1955V48.1855L39.8155 48.1965C40.4535 48.1965 40.8165 47.9105 40.8165 47.1405C40.8165 46.3705 40.4535 46.0845 39.8155 46.0845ZM43.2599 52.5195L46.8019 44.6545H49.5189L53.0609 52.5195H51.1469L50.3989 50.8585H45.9219L45.1739 52.5195H43.2599ZM46.5599 49.4285H49.7609L48.2319 46.0295H48.0889L46.5599 49.4285ZM57.7755 52.5745C54.8715 52.5745 53.2875 51.2215 53.2875 48.5815C53.2875 45.9525 54.8715 44.5885 57.7755 44.5995L61.7355 44.6215V46.0295H57.8965C55.9825 46.0295 55.0805 46.7995 55.0805 48.5815C55.0805 50.3745 55.9825 51.1445 57.8965 51.1445H61.8455V52.5745H57.7755ZM62.9443 52.5195V44.6545H71.5683V46.0845H64.7043V47.8225H70.9303V49.2525H64.7043V51.0895H71.5683V52.5195H62.9443ZM76.3441 48.6365V44.6545H86.0241V48.6365H84.2421V46.0845H81.8441V52.5195H80.0841V46.0845H78.1261V48.6365H76.3441ZM87.2861 52.5195V44.6545H89.0461V47.8775H94.5901V44.6545H96.3501V52.5195H94.5901V49.3075H89.0461V52.5195H87.2861ZM97.8887 52.5195V44.6545H106.513V46.0845H99.6487V47.8225H105.875V49.2525H99.6487V51.0895H106.513V52.5195H97.8887ZM111.563 52.5195V44.6545H119.967V46.0845H113.323V48.2625H119.109V49.6925H113.323V52.5195H111.563ZM124.357 52.5745C121.959 52.5745 121.178 51.6505 121.178 49.7035V44.6545H122.938V49.7035C122.938 50.8255 123.411 51.1445 124.654 51.1445H126.777C128.02 51.1445 128.493 50.8255 128.493 49.7035V44.6545H130.253V49.7035C130.253 51.6505 129.472 52.5745 127.074 52.5745H124.357ZM131.516 48.6365V44.6545H141.196V48.6365H139.414V46.0845H137.016V52.5195H135.256V46.0845H133.298V48.6365H131.516ZM145.637 52.5745C143.239 52.5745 142.458 51.6505 142.458 49.7035V44.6545H144.218V49.7035C144.218 50.8255 144.691 51.1445 145.934 51.1445H148.057C149.3 51.1445 149.773 50.8255 149.773 49.7035V44.6545H151.533V49.7035C151.533 51.6505 150.752 52.5745 148.354 52.5745H145.637ZM153.071 52.5195V44.6545H159.66C161.288 44.6545 162.234 45.4685 162.234 47.1405C162.234 48.5705 161.541 49.3735 160.331 49.5715L162.146 52.5195H160.144L158.461 49.6265H154.831V52.5195H153.071ZM159.451 46.0845H154.831V48.1855L159.451 48.1965C160.089 48.1965 160.452 47.9105 160.452 47.1405C160.452 46.3705 160.089 46.0845 159.451 46.0845ZM163.556 52.5195V44.6545H172.18V46.0845H165.316V47.8225H171.542V49.2525H165.316V51.0895H172.18V52.5195H163.556Z" fill="#141414"/>
</svg>
