<svg width="173" height="33" viewBox="0 0 173 33" fill="none" xmlns="http://www.w3.org/2000/svg">
<path d="M20.2638 6.50641C19.5745 6.50641 18.9112 6.77954 18.4234 7.26728L10.8993 14.7914C10.1677 15.523 9.17595 15.9327 8.1387 15.9327H2.60126C1.16407 15.9327 0 14.7687 0 13.3315V0H6.50316V9.75474L15.497 0.76087C15.9848 0.273133 16.6481 0 17.3374 0H29.2675V6.50316H20.2638V6.50641ZM0.00325103 32.519H6.50641V22.7643H22.7643V32.519H29.2675V27.0922C29.2675 26.4028 28.9943 25.7395 28.5066 25.2518L20.2768 17.022C19.7891 16.5343 19.1258 16.2611 18.4365 16.2611H11.374C10.34 16.2611 9.34829 16.6708 8.61343 17.4025L0.764121 25.2518C0.276384 25.7395 0.00325103 26.4028 0.00325103 27.0922V32.519Z" fill="#141414"/>
<path d="M44.0134 0.762495L50.6173 7.36645C51.1051 7.85419 51.3782 8.51751 51.3782 9.20685V32.5174H44.875V9.10605C44.875 7.66885 43.711 6.50478 42.2738 6.50478H33.4945V0.0016249H42.173C42.8623 0.0016249 43.5256 0.274758 44.0134 0.762495ZM62.762 0.0016249H52.6821C51.9635 0.0016249 51.3815 0.583658 51.3815 1.30226V6.50478H62.762V0.0016249Z" fill="#141414"/>
<path d="M90.5142 17.0204L98.7439 25.2501C99.2317 25.7379 99.5048 26.4012 99.5048 27.0905V32.5174H93.0017V25.3639C93.0017 23.9267 91.8376 22.7627 90.4004 22.7627H76.0935C74.6562 22.7627 73.4922 23.9267 73.4922 25.3639V32.5174H66.989V27.0905C66.989 26.4012 67.2622 25.7379 67.7499 25.2501L75.9797 17.0204C76.4674 16.5327 77.1307 16.2595 77.82 16.2595H88.6706C89.3599 16.2595 90.0232 16.5327 90.5109 17.0204H90.5142ZM77.8265 0.0016249C77.1372 0.0016249 76.4739 0.274758 75.9862 0.762495L67.7564 8.99224C67.2687 9.47998 66.9955 10.1433 66.9955 10.8326V17.8853H73.4987V9.10605C73.4987 7.66885 74.6628 6.50478 76.1 6.50478H90.4069C91.8441 6.50478 93.0082 7.66885 93.0082 9.10605V17.8853H99.5113V10.8326C99.5113 10.1433 99.2382 9.47998 98.7505 8.99224L90.5207 0.762495C90.033 0.274758 89.3697 0.0016249 88.6803 0.0016249H77.8265Z" fill="#141414"/>
<path d="M127.26 0.762495L135.49 8.99224C135.978 9.47998 136.251 10.1433 136.251 10.8326V32.5174H129.748V9.10605C129.748 7.66885 128.584 6.50478 127.146 6.50478H111.864L117.606 0.762495C118.094 0.274758 118.757 0.0016249 119.447 0.0016249H125.42C126.109 0.0016249 126.773 0.274758 127.26 0.762495ZM103.738 0.0016249V32.5174H110.242V0.0016249H103.738Z" fill="#141414"/>
<path d="M164.003 17.0204L172.233 25.2501C172.721 25.7379 172.994 26.4012 172.994 27.0905V32.5174H166.491V25.3639C166.491 23.9267 165.327 22.7627 163.889 22.7627H149.582C148.145 22.7627 146.981 23.9267 146.981 25.3639V32.5174H140.478V27.0905C140.478 26.4012 140.751 25.7379 141.239 25.2501L149.469 17.0204C149.956 16.5327 150.62 16.2595 151.309 16.2595H162.16C162.849 16.2595 163.512 16.5327 164 17.0204H164.003ZM151.315 0.0016249C150.626 0.0016249 149.963 0.274758 149.475 0.762495L141.245 8.99224C140.758 9.47998 140.484 10.1433 140.484 10.8326V17.8853H146.988V9.10605C146.988 7.66885 148.152 6.50478 149.589 6.50478H163.896C165.333 6.50478 166.497 7.66885 166.497 9.10605V17.8853H173V10.8326C173 10.1433 172.727 9.47998 172.239 8.99224L164.01 0.762495C163.522 0.274758 162.859 0.0016249 162.169 0.0016249H151.315Z" fill="#141414"/>
</svg>
