<svg width="173" height="13" viewBox="0 0 173 13" fill="none" xmlns="http://www.w3.org/2000/svg">
<path d="M1.15525 10V2.135H9.77925V3.565H2.91525V5.303H9.14125V6.733H2.91525V8.57H9.77925V10H1.15525ZM10.9844 10V2.135H12.4584L16.0994 4.687H16.1544L19.7954 2.135H21.2694V10H19.5094V4.335L17.0124 6.007V10H15.2524V6.007L12.7444 4.335V10H10.9844ZM22.8115 10V2.157L29.4335 2.135C31.1825 2.135 32.0075 2.861 32.0075 4.313C32.0075 5.061 31.7765 5.556 31.2815 5.908C31.9305 6.26 32.2275 6.81 32.2275 7.723C32.2275 9.208 31.4025 9.989 29.6535 9.989L22.8115 10ZM29.2245 3.543H24.5715V5.303H29.2245C29.8845 5.303 30.2255 4.984 30.2255 4.401C30.2255 3.818 29.8845 3.543 29.2245 3.543ZM29.4445 6.711H24.5715V8.581H29.4445C30.1155 8.581 30.4455 8.262 30.4455 7.635C30.4455 7.008 30.1155 6.711 29.4445 6.711ZM33.4355 10V2.135H40.0245C41.6525 2.135 42.5985 2.949 42.5985 4.621C42.5985 6.051 41.9055 6.854 40.6955 7.052L42.5105 10H40.5085L38.8255 7.107H35.1955V10H33.4355ZM39.8155 3.565H35.1955V5.666L39.8155 5.677C40.4535 5.677 40.8165 5.391 40.8165 4.621C40.8165 3.851 40.4535 3.565 39.8155 3.565ZM43.2599 10L46.8019 2.135H49.5189L53.0609 10H51.1469L50.3989 8.339H45.9219L45.1739 10H43.2599ZM46.5599 6.909H49.7609L48.2319 3.51H48.0889L46.5599 6.909ZM57.7755 10.055C54.8715 10.055 53.2875 8.702 53.2875 6.062C53.2875 3.433 54.8715 2.069 57.7755 2.08L61.7355 2.102V3.51H57.8965C55.9825 3.51 55.0805 4.28 55.0805 6.062C55.0805 7.855 55.9825 8.625 57.8965 8.625H61.8455V10.055H57.7755ZM62.9443 10V2.135H71.5683V3.565H64.7043V5.303H70.9303V6.733H64.7043V8.57H71.5683V10H62.9443ZM76.3441 6.117V2.135H86.0241V6.117H84.2421V3.565H81.8441V10H80.0841V3.565H78.1261V6.117H76.3441ZM87.2861 10V2.135H89.0461V5.358H94.5901V2.135H96.3501V10H94.5901V6.788H89.0461V10H87.2861ZM97.8887 10V2.135H106.513V3.565H99.6487V5.303H105.875V6.733H99.6487V8.57H106.513V10H97.8887ZM111.563 10V2.135H119.967V3.565H113.323V5.743H119.109V7.173H113.323V10H111.563ZM124.357 10.055C121.959 10.055 121.178 9.131 121.178 7.184V2.135H122.938V7.184C122.938 8.306 123.411 8.625 124.654 8.625H126.777C128.02 8.625 128.493 8.306 128.493 7.184V2.135H130.253V7.184C130.253 9.131 129.472 10.055 127.074 10.055H124.357ZM131.516 6.117V2.135H141.196V6.117H139.414V3.565H137.016V10H135.256V3.565H133.298V6.117H131.516ZM145.637 10.055C143.239 10.055 142.458 9.131 142.458 7.184V2.135H144.218V7.184C144.218 8.306 144.691 8.625 145.934 8.625H148.057C149.3 8.625 149.773 8.306 149.773 7.184V2.135H151.533V7.184C151.533 9.131 150.752 10.055 148.354 10.055H145.637ZM153.071 10V2.135H159.66C161.288 2.135 162.234 2.949 162.234 4.621C162.234 6.051 161.541 6.854 160.331 7.052L162.146 10H160.144L158.461 7.107H154.831V10H153.071ZM159.451 3.565H154.831V5.666L159.451 5.677C160.089 5.677 160.452 5.391 160.452 4.621C160.452 3.851 160.089 3.565 159.451 3.565ZM163.556 10V2.135H172.18V3.565H165.316V5.303H171.542V6.733H165.316V8.57H172.18V10H163.556Z" fill="#141414"/>
</svg>
