<svg width="100" height="100" viewBox="0 0 100 100" fill="none" xmlns="http://www.w3.org/2000/svg">
<rect width="99.9" height="99.9" transform="scale(1.001)" fill="#FAF5EA"/>
<path d="M59.9555 32.7568C58.7368 32.7568 57.5641 33.2397 56.7017 34.102L43.3992 47.4045C42.1057 48.698 40.3524 49.4223 38.5185 49.4223H28.7285C26.1875 49.4223 24.1295 47.3643 24.1295 44.8233V21.2536H35.6269V38.4998L51.5279 22.5988C52.3902 21.7365 53.5629 21.2536 54.7817 21.2536H75.8737V32.751H59.9555V32.7568ZM24.1353 78.7465H35.6327V61.5004H64.3763V78.7465H75.8737V69.1519C75.8737 67.9332 75.3908 66.7605 74.5285 65.8982L59.9785 51.3481C59.1162 50.4858 57.9435 50.0029 56.7247 50.0029H44.2385C42.4104 50.0029 40.6571 50.7273 39.3579 52.0207L25.4805 65.8982C24.6181 66.7605 24.1353 67.9332 24.1353 69.1519V78.7465Z" fill="#141414"/>
</svg>
