<svg xmlns="http://www.w3.org/2000/svg" width="80" height="80" viewBox="0 0 80 80" fill="none" stroke="#64D2FF" stroke-width="1.5" stroke-linecap="round" stroke-linejoin="round">
  <!-- Dynamic spiky hair -->
  <path d="M28 30 Q28 18 40 14 Q52 18 52 30"/>
  <path d="M32 20 L28 12"/>
  <path d="M40 14 L40 7"/>
  <path d="M48 20 L52 12"/>
  <!-- Face -->
  <ellipse cx="40" cy="38" rx="12" ry="11"/>
  <!-- Confident eyes (sharp, forward-looking) -->
  <path d="M32 37 L37 36 L37 38"/>
  <path d="M48 37 L43 36 L43 38"/>
  <!-- Confident smile (wide) -->
  <path d="M33 42 Q40 47 47 42"/>
  <!-- Neck -->
  <line x1="37" y1="49" x2="37" y2="53"/>
  <line x1="43" y1="49" x2="43" y2="53"/>
  <!-- Dynamic pose: open jacket -->
  <path d="M22 60 L30 52 L36 58"/>
  <path d="M58 60 L50 52 L44 58"/>
  <line x1="36" y1="58" x2="36" y2="65"/>
  <line x1="44" y1="58" x2="44" y2="65"/>
  <!-- Arm extended (dynamic gesture) -->
  <path d="M22 60 L14 50"/>
  <path d="M14 50 L10 48"/>
  <!-- Lightning bolt sales energy -->
  <path d="M60 20 L56 28 L60 28 L56 36" stroke="#64D2FF" stroke-width="2"/>
</svg>
