<svg xmlns="http://www.w3.org/2000/svg" width="80" height="80" viewBox="0 0 80 80" fill="none" stroke="#0A84FF" stroke-width="1.5" stroke-linecap="round" stroke-linejoin="round">
  <!-- Short technical hair -->
  <path d="M28 30 Q28 18 40 16 Q52 18 52 30"/>
  <!-- Technical visor / headset -->
  <path d="M26 34 L30 32 L50 32 L54 34"/>
  <rect x="30" y="30" width="20" height="5" rx="2" stroke="#0A84FF" fill="#0A84FF" fill-opacity="0.1"/>
  <!-- Visor lens glow -->
  <line x1="32" y1="32.5" x2="36" y2="32.5" stroke="#0A84FF" stroke-width="1" stroke-opacity="0.6"/>
  <line x1="38" y1="32.5" x2="48" y2="32.5" stroke="#0A84FF" stroke-width="1" stroke-opacity="0.6"/>
  <!-- Face -->
  <ellipse cx="40" cy="40" rx="12" ry="11"/>
  <!-- Focused eyes -->
  <line x1="33" y1="39" x2="37" y2="39"/>
  <line x1="43" y1="39" x2="47" y2="39"/>
  <circle cx="35" cy="39" r="0.8" fill="#0A84FF" stroke="none"/>
  <circle cx="45" cy="39" r="0.8" fill="#0A84FF" stroke="none"/>
  <!-- Neutral focused mouth -->
  <line x1="37" y1="45" x2="43" y2="45"/>
  <!-- Neck -->
  <line x1="37" y1="51" x2="37" y2="55"/>
  <line x1="43" y1="51" x2="43" y2="55"/>
  <!-- Technical jacket / armor -->
  <path d="M24 62 L32 55 L40 60 L48 55 L56 62"/>
  <!-- Code symbols floating -->
  <text x="60" y="22" font-size="7" fill="#0A84FF" stroke="none" font-family="monospace">&lt;/&gt;</text>
  <text x="10" y="50" font-size="6" fill="#0A84FF" fill-opacity="0.5" stroke="none" font-family="monospace">{}</text>
  <text x="62" y="48" font-size="5" fill="#0A84FF" fill-opacity="0.4" stroke="none" font-family="monospace">01</text>
  <!-- Ear piece / comm device -->
  <circle cx="27" cy="40" r="2" fill="#0A84FF" fill-opacity="0.2"/>
  <line x1="25" y1="40" x2="22" y2="44"/>
</svg>
